<svg id="Layer_5" enable-background="new 0 0 64 64" height="512" viewBox="0 0 64 64" width="512" xmlns="http://www.w3.org/2000/svg"><circle cx="10" cy="14" r="1"/><circle cx="34" cy="14" r="1"/><circle cx="38" cy="14" r="1"/><circle cx="34" cy="18" r="1"/><circle cx="38" cy="18" r="1"/><path d="m13 13h2v2h-2z"/><path d="m5 13h2v2h-2z"/><path d="m11 17h4v2h-4z"/><path d="m5 17h4v2h-4z"/><path d="m28 18c1.654 0 3-1.346 3-3s-1.346-3-3-3-3 1.346-3 3 1.346 3 3 3zm0-4c.551 0 1 .448 1 1s-.449 1-1 1-1-.448-1-1 .449-1 1-1z"/><path d="m21 25c-7.168 0-13 5.832-13 13s5.832 13 13 13 13-5.832 13-13-5.832-13-13-13zm0 24c-6.065 0-11-4.935-11-11s4.935-11 11-11 11 4.935 11 11-4.935 11-11 11z"/><path d="m21 29c-4.962 0-9 4.037-9 9s4.038 9 9 9 9-4.037 9-9-4.038-9-9-9zm0 16c-3.86 0-7-3.141-7-7s3.14-7 7-7 7 3.141 7 7-3.14 7-7 7z"/><path d="m21 33v2c1.654 0 3 1.346 3 3h2c0-2.757-2.243-5-5-5z"/><path d="m32 5h4v2h-4z"/><path d="m63 30.58c0-2.551-1.912-4.688-4.448-4.97l-6.552-.727v1.117c0 1.654-1.346 3-3 3s-3-1.346-3-3v-1.117l-3 .333v-16.216h-1.219l-2-8h-35.562l-2 8h-1.219v46h2v8h6v-4h26v4h6v-8h2v-4h16v-15h4zm-22-19.58v10h-38v-10zm-35.219-8h32.438l1.5 6h-35.438zm33.219 58h-2v-4h-30v4h-2v-6h34zm2-8h-38v-30h38v2.438l-1.553.172c-2.535.283-4.447 2.419-4.447 4.97v5.42h4v15h2zm0-10h16v2h-16zm0 6v-2h16v2zm20-15h-2v-2h-2v9h-16v-9h-2v2h-2v-3.42c0-1.53 1.147-2.812 2.668-2.981l4.454-.495c.504 2.227 2.5 3.896 4.878 3.896s4.374-1.669 4.877-3.896l4.454.495c1.522.169 2.669 1.451 2.669 2.981z"/></svg>